<?xml version="1.0" encoding="utf-8"?><!-- Uploaded to: SVG Repo, www.svgrepo.com, Generator: SVG Repo Mixer Tools -->
<svg fill="#fff" width="800px" height="800px" viewBox="0 0 1024 1024"
  xmlns="http://www.w3.org/2000/svg">
  <path d="M603.648 541.696h223.631c11.311 0 20.48-9.169 20.48-20.48s-9.169-20.48-20.48-20.48H603.648c-11.311 0-20.48 9.169-20.48 20.48s9.169 20.48 20.48 20.48zm-409.29-300.032h223.631c11.311 0 20.48-9.169 20.48-20.48s-9.169-20.48-20.48-20.48H194.358c-11.311 0-20.48 9.169-20.48 20.48s9.169 20.48 20.48 20.48z"/>
  <path d="M593.987 418.816h285.737c16.962 0 30.72 13.758 30.72 30.72v441.006c0 16.962-13.758 30.72-30.72 30.72h-317.44c-16.968 0-30.72-13.754-30.72-30.72v-39.281c0-11.311-9.169-20.48-20.48-20.48s-20.48 9.169-20.48 20.48v39.281c0 39.586 32.089 71.68 71.68 71.68h317.44c39.583 0 71.68-32.097 71.68-71.68V449.536c0-39.583-32.097-71.68-71.68-71.68H593.987c-11.311 0-20.48 9.169-20.48 20.48s9.169 20.48 20.48 20.48z"/>
  <path d="M152.747 709.12h359.086c11.311 0 20.48-9.169 20.48-20.48s-9.169-20.48-20.48-20.48H152.747c-11.311 0-20.48 9.169-20.48 20.48s9.169 20.48 20.48 20.48z"/>
  <path d="M512 749.568H143.36c-16.962 0-30.72-13.758-30.72-30.72V153.6c0-16.962 13.758-30.72 30.72-30.72H460.8c16.962 0 30.72 13.758 30.72 30.72v396.8c0 11.311 9.169 20.48 20.48 20.48s20.48-9.169 20.48-20.48V153.6c0-39.583-32.097-71.68-71.68-71.68H143.36c-39.583 0-71.68 32.097-71.68 71.68v565.248c0 39.583 32.097 71.68 71.68 71.68H512c11.311 0 20.48-9.169 20.48-20.48s-9.169-20.48-20.48-20.48z"/>
  <path d="M491.571 449.28v106.24c0 16.962-13.758 30.72-30.72 30.72h-229.12v40.96h229.12c39.583 0 71.68-32.097 71.68-71.68V449.28h-40.96z"/>
  <path d="M112.64 702.771v-44.8c0-16.962 13.758-30.72 30.72-30.72h229.12v-40.96H143.36c-39.583 0-71.68 32.097-71.68 71.68v44.8h40.96z"/>
</svg>