<?xml version="1.0" encoding="utf-8"?><!-- Uploaded to: SVG Repo, www.svgrepo.com, Generator: SVG Repo Mixer Tools -->
<svg fill="#fff" width="800px" height="800px" viewBox="0 0 1024 1024"
  xmlns="http://www.w3.org/2000/svg">
  <path d="M900.267 524.8h-320c-29.867 0-55.467 25.6-55.467 55.467v320c0 29.867 25.6 55.467 55.467 55.467h320c29.867 0 55.467-25.6 55.467-55.467v-320c0-34.133-25.6-55.467-55.467-55.467zm-187.734 42.667h46.933v106.667c-12.8-4.267-34.133-4.267-46.933 0V567.467zm200.534 332.8c0 8.533-4.267 12.8-12.8 12.8h-320c-8.533 0-12.8-4.267-12.8-12.8v-320c0-8.533 4.267-12.8 12.8-12.8h89.6v115.2c0 12.8 4.267 25.6 17.067 34.133 8.533 8.533 25.6 8.533 38.4 0 8.533-4.267 21.333-4.267 25.6 0s12.8 4.267 17.067 4.267c4.267 0 12.8 0 17.067-4.267 12.8-8.533 17.067-17.067 17.067-34.133v-115.2h98.133c8.533 0 12.8 4.267 12.8 12.8v320zM443.733 524.8H119.466c-29.867 0-55.467 25.6-55.467 55.467v320c0 29.867 25.6 55.467 55.467 55.467h320c29.867 0 55.467-25.6 55.467-55.467v-320c4.267-34.133-21.333-55.467-51.2-55.467zm-192 42.667h46.933v106.667c-12.8-4.267-34.133-4.267-46.933 0V567.467zm204.8 332.8c0 8.533-4.267 12.8-12.8 12.8H119.466c-8.533 0-12.8-4.267-12.8-12.8v-320c0-8.533 4.267-12.8 12.8-12.8h89.6v115.2c0 12.8 4.267 25.6 17.067 34.133 8.533 8.533 25.6 8.533 38.4 0 8.533-4.267 21.333-4.267 25.6 0s12.8 4.267 17.067 4.267c4.267 0 12.8 0 17.067-4.267 12.8-8.533 17.067-17.067 17.067-34.133v-115.2h98.133c8.533 0 12.8 4.267 12.8 12.8v320zM349.867 499.2h320c29.867 0 55.467-25.6 55.467-55.467V119.466c0-29.867-25.6-55.467-55.467-55.467h-320c-29.867 0-55.467 25.6-55.467 55.467v320c0 34.133 25.6 59.733 55.467 59.733zm-12.8-379.733c0-8.533 4.267-12.8 12.8-12.8h320c8.533 0 12.8 4.267 12.8 12.8v320c0 8.533-4.267 12.8-12.8 12.8h-320c-8.533 0-12.8-4.267-12.8-12.8v-320z"/>
</svg>