<?xml version="1.0" encoding="iso-8859-1"?>
<!-- Generator: Adobe Illustrator 19.0.0, SVG Export Plug-In . SVG Version: 6.00 Build 0)  -->
<svg version="1.1" id="Capa_1" xmlns="http://www.w3.org/2000/svg" xmlns:xlink="http://www.w3.org/1999/xlink" x="0px" y="0px"
	 viewBox="0 0 512.001 512.001" style="enable-background:new 0 0 512.001 512.001;" xml:space="preserve" fill="#fff">
<g>
	<g>
		<path d="M398.716,35.304H113.284L0,188.802l256,287.895l256.001-287.895L398.716,35.304z M397.89,84.776l65.038,88.124H375.53
			L397.89,84.776z M371.825,65.347L349.53,153.22l-64.004-87.873H371.825z M326.697,172.901H185.304L256,75.841L326.697,172.901z
			 M226.475,65.347L162.47,153.22l-22.296-87.873H226.475z M114.111,84.776l22.36,88.124H49.073L114.111,84.776z M52.777,202.943
			h92.607l68.014,180.633L52.777,202.943z M255.999,411.464l-78.515-208.52h157.03L255.999,411.464z M298.603,383.576
			l68.014-180.633h92.608L298.603,383.576z"/>
	</g>
</g>
<g>
</g>
<g>
</g>
<g>
</g>
<g>
</g>
<g>
</g>
<g>
</g>
<g>
</g>
<g>
</g>
<g>
</g>
<g>
</g>
<g>
</g>
<g>
</g>
<g>
</g>
<g>
</g>
<g>
</g>
</svg>
